<svg xmlns="http://www.w3.org/2000/svg" xmlns:xlink="http://www.w3.org/1999/xlink" width="360" height="640" viewBox="0 0 360 640"><defs><linearGradient id="a" x1="0.5" x2="0.5" y2="1" gradientUnits="objectBoundingBox"><stop offset="0" stop-color="#070e83"/><stop offset="0.74" stop-color="#02075d"/>
    <stop offset="1" stop-color="gray"/>
</linearGradient></defs><g transform="translate(0)">
    <g fill="#02075d" stroke="#707070" stroke-width="1">
        <rect width="360" height="640" stroke="none"/>
        <rect x="0.5" y="0.5" width="359" height="639" fill="none"/></g>
    <g transform="translate(0 -58.101)" fill="#50549f">
        <path d="M 197.1693725585938 570.0654296875 C 193.4238128662109 570.0657958984375 189.6730346679688 569.640625 186.0210876464844 568.8016357421875 C 182.3506469726563 567.9584350585938 178.7782135009766 566.69677734375 175.4030456542969 565.0516357421875 C 171.9672546386719 563.3770141601563 168.7282562255859 561.30078125 165.7760467529297 558.8807373046875 C 162.7374877929688 556.389892578125 159.9862670898438 553.5205688476563 157.5987548828125 550.3523559570313 L 58.90114974975586 419.3763122558594 C 54.87942886352539 414.0393371582031 52.02337265014648 408.0745544433594 50.41231536865234 401.647705078125 C 48.85615158081055 395.4398193359375 48.52081680297852 389.0639953613281 49.4156494140625 382.697265625 C 50.31048202514648 376.3305358886719 52.39031600952148 370.2941589355469 55.59742736816406 364.7557067871094 C 58.91765213012695 359.0219421386719 63.30720520019531 354.0755004882813 68.64420318603516 350.0538330078125 L 359.4999694824219 130.8782196044922 L 359.4999694824219 460.1895141601563 L 226.9212036132813 560.0945434570313 C 222.5562591552734 563.3839111328125 217.7342681884766 565.9093017578125 212.5889892578125 567.6005859375 C 207.6148681640625 569.2356567382813 202.4269256591797 570.06494140625 197.1693725585938 570.0654296875 Z" stroke="none"/><path d="M 197.1693115234375 569.5654296875 C 202.3737640380859 569.56494140625 207.5092010498047 568.7440185546875 212.4328765869141 567.1256103515625 C 217.5259246826172 565.4514770507813 222.2992553710938 562.9515380859375 226.6202545166016 559.6952514648438 L 358.9999694824219 459.9402465820313 L 358.9999694824219 131.8810577392578 L 68.94515228271484 350.4530944824219 C 63.66187286376953 354.434326171875 59.316650390625 359.3307189941406 56.03009414672852 365.0062561035156 C 52.85548400878906 370.4887084960938 50.79659652709961 376.4642028808594 49.91081619262695 382.7668762207031 C 49.02498245239258 389.0694885253906 49.35687255859375 395.3810424804688 50.89731597900391 401.5260925292969 C 52.49203872680664 407.8877258300781 55.31925964355469 413.7921447753906 59.3004264831543 419.0753784179688 L 157.998046875 550.051513671875 C 160.3616485595703 553.1879272460938 163.0851440429688 556.0283813476563 166.0929870605469 558.4940185546875 C 169.0152130126953 560.889404296875 172.2212677001953 562.9445190429688 175.6221008300781 564.6021728515625 C 178.9631500244141 566.230712890625 182.4995422363281 567.4796752929688 186.1330413818359 568.3143310546875 C 189.7482604980469 569.1448364257813 193.46142578125 569.5657958984375 197.1693115234375 569.5654296875 M 197.16943359375 570.5654296875 C 182.0056457519531 570.5668334960938 167.0286560058594 563.6964721679688 157.1994323730469 550.6533203125 L 58.50181579589844 419.6772155761719 C 41.88331604003906 397.6235961914063 46.28970718383789 366.2729797363281 68.34331512451172 349.6544799804688 L 359.9999694824219 129.8753814697266 L 359.9999694824219 460.4388122558594 L 227.2220916748047 560.493896484375 C 218.2117004394531 567.2841186523438 207.6448211669922 570.564453125 197.16943359375 570.5654296875 Z" stroke="none" fill="#707070"/></g><g transform="translate(-739.571 -412.694)" fill="#ece9e9"><path d="M 740.0704956054688 984.1485595703125 L 740.0704956054688 413.1941528320313 L 904.7299194335938 413.1941528320313 L 1062.037353515625 629.708984375 C 1065.925903320313 635.0611572265625 1069.272827148438 640.8015747070313 1071.98486328125 646.7706909179688 C 1074.6279296875 652.5880126953125 1076.700927734375 658.6929321289063 1078.145874023438 664.9158325195313 C 1079.564819335938 671.0259399414063 1080.393188476563 677.3116455078125 1080.608032226563 683.5982666015625 C 1080.82080078125 689.8252563476563 1080.433715820313 696.1075439453125 1079.457641601563 702.2705688476563 C 1078.4814453125 708.4334716796875 1076.908203125 714.5279541015625 1074.781494140625 720.3843994140625 C 1072.634399414063 726.2969970703125 1069.904174804688 732.01904296875 1066.666625976563 737.3916625976563 C 1063.369384765625 742.863525390625 1059.511352539063 748.029052734375 1055.199951171875 752.7449340820313 C 1050.776000976563 757.5838623046875 1045.819091796875 762.0091552734375 1040.467041015625 765.8977661132813 L 740.0704956054688 984.1485595703125 Z" stroke="none"/><path d="M 740.570556640625 413.6940307617188 L 740.570556640625 983.167236328125 L 1040.173217773438 765.4932861328125 C 1045.498046875 761.6243286132813 1050.4296875 757.2216796875 1054.8310546875 752.407470703125 C 1059.1201171875 747.716064453125 1062.9580078125 742.5772094726563 1066.23828125 737.133544921875 C 1069.459228515625 731.7886352539063 1072.175537109375 726.0960083007813 1074.3115234375 720.2137451171875 C 1076.427368164063 714.3871459960938 1077.992553710938 708.3238525390625 1078.963623046875 702.1923217773438 C 1079.934936523438 696.060791015625 1080.320068359375 689.810546875 1080.108276367188 683.6153564453125 C 1079.89453125 677.3609619140625 1079.070434570313 671.1075439453125 1077.658935546875 665.0289306640625 C 1076.221313476563 658.838134765625 1074.1591796875 652.7647705078125 1071.52978515625 646.9775390625 C 1068.831420898438 641.0390014648438 1065.501708984375 635.3278198242188 1061.632934570313 630.0028686523438 L 904.4752197265625 413.6940307617188 L 740.570556640625 413.6940307617188 M 739.570556640625 412.6940307617188 L 904.9846801757813 412.6940307617188 L 1062.44189453125 629.4150390625 C 1094.255126953125 673.2026977539063 1084.547607421875 734.4882202148438 1040.760986328125 766.30224609375 L 739.570556640625 985.1298828125 L 739.570556640625 412.6940307617188 Z" stroke="none" fill="#707070"/></g><g transform="translate(0 -253.01)" fill="#ece9e9"><path d="M 272.5234680175781 345.3880920410156 L 272.5198364257813 345.3880920410156 C 269.4553833007813 345.3880920410156 266.3867492675781 345.0400085449219 263.3991088867188 344.3534851074219 C 260.3963012695313 343.6634826660156 257.4737548828125 342.6311645507813 254.712646484375 341.2851867675781 C 251.9019775390625 339.9150695800781 249.2523193359375 338.2164611816406 246.8372039794922 336.236572265625 C 244.3515014648438 334.1987915039063 242.1007995605469 331.8512878417969 240.1476135253906 329.2593078613281 L 183.0664215087891 253.5098114013672 L 359.5 253.5098114013672 L 359.5 290.0316467285156 L 296.8656005859375 337.2302856445313 C 293.2943115234375 339.9216003417969 289.3490600585938 341.9878234863281 285.139404296875 343.3715515136719 C 281.0697326660156 344.709228515625 276.8251037597656 345.3876953125 272.5234680175781 345.3880920410156 Z" stroke="none"/><path d="M 272.5234069824219 344.8880920410156 C 276.77197265625 344.8877258300781 280.9640502929688 344.2176513671875 284.9832763671875 342.8965454101563 C 289.1407165527344 341.5299682617188 293.0372619628906 339.4892272949219 296.564697265625 336.8309631347656 L 359 289.7823791503906 L 359 254.0098114013672 L 184.0692596435547 254.0098114013672 L 240.5469360351563 328.9584045410156 C 242.4762115478516 331.5186767578125 244.6992340087891 333.8372802734375 247.1542053222656 335.8498840332031 C 249.5392608642578 337.8051452636719 252.156005859375 339.4826354980469 254.9317321777344 340.8357543945313 C 257.6587219238281 342.1650695800781 260.5452575683594 343.1846618652344 263.5110778808594 343.8661804199219 C 266.4620361328125 344.5442810058594 269.4930114746094 344.8880920410156 272.5198364257813 344.8880920410156 L 272.5234069824219 344.8880920410156 M 272.5198059082031 345.8880920410156 C 260.0862426757813 345.8880920410156 247.8071899414063 340.2548217773438 239.7483062744141 329.5602111816406 L 182.0635681152344 253.0098114013672 L 360 253.0098114013672 L 360 290.2809448242188 L 297.16650390625 337.6296081542969 C 289.778076171875 343.197509765625 281.1133728027344 345.8873291015625 272.5234985351563 345.8880920410156 C 272.5227355957031 345.8880920410156 272.5205688476563 345.8880920410156 272.5198059082031 345.8880920410156 Z" stroke="none" fill="#707070"/></g><g fill="url(#a)"><path d="M 359.5000305175781 639.4999389648438 L 96.50032043457031 639.4999389648438 L 96.50032043457031 614.9996948242188 C 96.50032043457031 606.4271240234375 98.17915344238281 598.1112670898438 101.4901885986328 590.2830200195313 C 103.0815887451172 586.5205078125 105.0513229370117 582.8915405273438 107.3446884155273 579.496826171875 C 109.6163558959961 576.1343383789063 112.2252502441406 572.9722900390625 115.0988540649414 570.0986938476563 C 117.9724502563477 567.2250366210938 121.1344528198242 564.6160888671875 124.4969863891602 562.3444213867188 C 127.8916168212891 560.051025390625 131.5206146240234 558.0812377929688 135.2831573486328 556.4898071289063 C 143.1114501953125 553.1786499023438 151.4274597167969 551.4998168945313 160.0001831054688 551.4998168945313 L 359.5000305175781 551.4998168945313 L 359.5000305175781 639.4999389648438 Z" stroke="none"/><path d="M 359.0000305175781 638.9999389648438 L 359.0000305175781 551.9998168945313 L 160.0001831054688 551.9998168945313 C 151.4947204589844 551.9998168945313 143.2442474365234 553.6654052734375 135.4779205322266 556.9503173828125 C 131.7451477050781 558.5291748046875 128.1447906494141 560.4833984375 124.7768859863281 562.7587280273438 C 121.4407196044922 565.0126342773438 118.3035202026367 567.60107421875 115.4523849487305 570.4522094726563 C 112.6012878417969 573.3033447265625 110.0128555297852 576.4405517578125 107.7590179443359 579.7767333984375 C 105.4837188720703 583.1446533203125 103.5295181274414 586.7449951171875 101.95068359375 590.477783203125 C 98.66585540771484 598.2440185546875 97.00032043457031 606.494384765625 97.00032043457031 614.9996948242188 L 97.00032043457031 638.9999389648438 L 359.0000305175781 638.9999389648438 M 360.0000305175781 639.9999389648438 L 96.00032043457031 639.9999389648438 L 96.00032043457031 614.9996948242188 C 96.00032043457031 579.6539916992188 124.6536178588867 550.9998168945313 160.0001831054688 550.9998168945313 L 360.0000305175781 550.9998168945313 L 360.0000305175781 639.9999389648438 Z" stroke="none" fill="#707070"/></g></g></svg>