<svg xmlns="http://www.w3.org/2000/svg" xmlns:xlink="http://www.w3.org/1999/xlink" width="360" height="640" viewBox="0 0 360 640"><defs><linearGradient id="a" x1="0.5" x2="0.5" y2="1" gradientUnits="objectBoundingBox"><stop offset="0" stop-color="#070e83"/><stop offset="1" stop-color="#040742"/></linearGradient></defs><g transform="translate(0 0)"><g fill="#50549f" stroke="#707070" stroke-width="1"><rect width="360" height="640" stroke="none"/><rect x="0.5" y="0.5" width="359" height="639" fill="none"/></g><g transform="translate(-324.89 -42.417)" fill="#888bc2"><path d="M 471.2679748535156 592.1787109375 C 465.4263916015625 592.1788940429688 459.6966247558594 591.1642456054688 454.23779296875 589.1630249023438 C 448.5873718261719 587.0916137695313 443.398193359375 584.0209350585938 438.8143310546875 580.0363159179688 L 325.3900756835938 481.4381103515625 L 325.3900756835938 132.9601745605469 L 611.3578491210938 381.5480651855469 C 616.4013061523438 385.9321594238281 620.43505859375 391.1726989746094 623.34716796875 397.1239929199219 C 626.1600341796875 402.8725891113281 627.8136596679688 409.0392761230469 628.2621459960938 415.4528198242188 C 628.7106323242188 421.8663940429688 627.9312744140625 428.2033386230469 625.9457397460938 434.2875366210938 C 623.8901977539063 440.5863342285156 620.6249389648438 446.3374633789063 616.2405395507813 451.381103515625 L 508.6473693847656 575.1526489257813 C 506.2442016601563 577.9171752929688 503.5442504882813 580.4105224609375 500.62255859375 582.5634765625 C 497.7798461914063 584.6581420898438 494.7021484375 586.4495239257813 491.4749145507813 587.8878784179688 C 488.3060302734375 589.30029296875 484.972900390625 590.3815307617188 481.5682678222656 591.1015625 C 478.189208984375 591.8162231445313 474.7236633300781 592.1786499023438 471.2679748535156 592.1787109375 Z" stroke="none"/><path d="M 471.2679748535156 591.6787109375 C 474.68896484375 591.6786499023438 478.1197204589844 591.3198852539063 481.4647827148438 590.6124267578125 C 484.8351440429688 589.8995971679688 488.1345520019531 588.8292846679688 491.2713928222656 587.4312133789063 C 494.4657897949219 586.0074462890625 497.51220703125 584.2343139648438 500.3258972167969 582.1609497070313 C 503.2181396484375 580.02978515625 505.8908996582031 577.5614624023438 508.27001953125 574.8246459960938 L 615.8632202148438 451.0530700683594 C 620.203369140625 446.0602416992188 623.4357299804688 440.3672790527344 625.470458984375 434.1324157714844 C 627.4358520507813 428.1097106933594 628.2073364257813 421.8367614746094 627.7633666992188 415.4877014160156 C 627.3194580078125 409.1387023925781 625.6824951171875 403.0342407226563 622.8980102539063 397.34375 C 620.0155639648438 391.452880859375 616.0225219726563 386.2654113769531 611.0298461914063 381.9254150390625 L 325.8900756835938 134.0572967529297 L 325.8900756835938 481.2102661132813 L 439.1423950195313 579.658935546875 C 443.6801452636719 583.603515625 448.8168640136719 586.6432495117188 454.4098510742188 588.693603515625 C 459.8133850097656 590.6744995117188 465.4852600097656 591.6788330078125 471.2679748535156 591.6787109375 M 471.2679748535156 592.6787109375 C 459.6365661621094 592.6790161132813 447.9537963867188 588.6435546875 438.486328125 580.4136352539063 L 324.8900756835938 481.6659851074219 L 324.8900756835938 131.8629913330078 L 611.6859130859375 381.1707153320313 C 632.5263061523438 399.2868347167969 634.7349243164063 430.8678283691406 616.617919921875 451.7091064453125 L 509.0247497558594 575.480712890625 C 499.1380310058594 586.8541259765625 485.2403259277344 592.6783447265625 471.2679748535156 592.6787109375 Z" stroke="none" fill="#707070"/></g><g transform="translate(-18.749 -371.314)" fill="#02075d"><path d="M 378.2488403320313 999.0809326171875 L 74.28913879394531 734.8533325195313 C 69.29636383056641 730.5130615234375 64.74405670166016 725.6726684570313 60.75867462158203 720.4666137695313 C 56.87475204467773 715.39306640625 53.48175048828125 709.9109497070313 50.67390441894531 704.1725463867188 C 47.9169807434082 698.5381469726563 45.69590377807617 692.5999145507813 44.07236480712891 686.5227661132813 C 42.46429061889648 680.503173828125 41.4282112121582 674.2948608398438 40.99298095703125 668.0702514648438 C 40.5577507019043 661.8456420898438 40.71974945068359 655.5535278320313 41.47451782226563 649.3687133789063 C 42.23651885986328 643.124755859375 43.60959625244141 636.9351806640625 45.55567169189453 630.9719848632813 C 47.53759765625 624.898681640625 50.13467407226563 618.9977416992188 53.27482604980469 613.43310546875 C 56.49690246582031 607.7230224609375 60.33136749267578 602.2962036132813 64.67160034179688 597.3034057617188 L 260.6854553222656 371.8148498535156 L 378.2488403320313 371.8148498535156 L 378.2488403320313 999.0809326171875 Z" stroke="none"/><path d="M 377.7488403320313 997.9837646484375 L 377.7488403320313 372.3148498535156 L 260.913330078125 372.3148498535156 L 65.04890441894531 597.6314697265625 C 60.73075103759766 602.5989379882813 56.91582870483398 607.9979858398438 53.71028900146484 613.6787719726563 C 50.58636474609375 619.2146606445313 48.0026741027832 625.085205078125 46.03098297119141 631.1271362304688 C 44.0949821472168 637.0596313476563 42.72890472412109 643.2174072265625 41.97082901000977 649.4293212890625 C 41.21990585327148 655.58251953125 41.05875015258789 661.8424682617188 41.49174880981445 668.035400390625 C 41.92475128173828 674.2282104492188 42.95552062988281 680.4048461914063 44.55544281005859 686.3936767578125 C 46.17059707641602 692.439697265625 48.38028717041016 698.347412109375 51.1230583190918 703.9527587890625 C 53.91636657714844 709.6615600585938 57.29182815551758 715.1152954101563 61.1557502746582 720.1627197265625 C 65.12067413330078 725.3421630859375 69.64974975585938 730.1577758789063 74.61721038818359 734.4760131835938 L 377.7488403320313 997.9837646484375 M 378.7488403320313 1000.178100585938 L 73.96113586425781 735.230712890625 C 33.11375045776367 699.7220458984375 28.78559684753418 637.8228149414063 64.29421234130859 596.9754028320313 L 260.4576110839844 371.3148498535156 L 378.7488403320313 371.3148498535156 L 378.7488403320313 1000.178100585938 Z" stroke="none" fill="#707070"/></g><g transform="translate(-25.588 -223.79)" fill="#ece9e9"><path d="M 132.5362854003906 338.4169921875 L 132.5329284667969 338.4169921875 C 122.2535171508789 338.4169921875 112.4486999511719 334.5529479980469 104.9246063232422 327.5367126464844 L 30.32631492614746 257.9730529785156 C 28.79689407348633 256.5467834472656 27.37165641784668 254.9978942871094 26.08790397644043 253.3670654296875 L 26.08790397644043 224.2895202636719 L 256.5807189941406 224.2895202636719 L 162.1653442382813 325.5372924804688 C 158.2664642333984 329.7183837890625 153.6435546875 332.9640502929688 148.4250183105469 335.1841735839844 C 143.3837280273438 337.3288879394531 138.0379638671875 338.4165649414063 132.5362854003906 338.4169921875 Z" stroke="none"/><path d="M 132.5362243652344 337.9169921875 C 137.9703216552734 337.9165649414063 143.2501983642578 336.8423156738281 148.2292785644531 334.7240905761719 C 153.383056640625 332.5315246582031 157.9487915039063 329.3258972167969 161.7996673583984 325.1962890625 L 255.4307861328125 224.7895202636719 L 26.58790397644043 224.7895202636719 L 26.58790397644043 253.1932830810547 C 27.8278636932373 254.7543487548828 29.19900321960449 256.2380981445313 30.66731452941895 257.6073608398438 L 105.2656097412109 327.1710510253906 C 112.6968154907227 334.1006774902344 122.3805465698242 337.9169921875 132.5329284667969 337.9169921875 L 132.5362243652344 337.9169921875 M 132.5329284667969 338.9169921875 C 122.5186767578125 338.9169921875 112.4855346679688 335.27099609375 104.583610534668 327.9024047851563 L 29.98531532287598 258.3387145996094 C 28.37013816833496 256.8324890136719 26.90460968017578 255.2272338867188 25.58790397644043 253.5396728515625 L 25.58790397644043 223.7895202636719 L 257.7306518554688 223.7895202636719 L 162.5310211181641 325.8782958984375 C 154.4569396972656 334.5368041992188 143.5093078613281 338.9161376953125 132.5363159179688 338.9169921875 C 132.5357055664063 338.9169921875 132.5335388183594 338.9169921875 132.5329284667969 338.9169921875 Z" stroke="none" fill="#707070"/></g><g transform="translate(-42)" fill="url(#a)"><path d="M 338.5003051757813 639.4999389648438 L 42.50030517578125 639.4999389648438 L 42.50030517578125 569.2321166992188 C 49.38334274291992 566.7554931640625 56.61434555053711 565.500244140625 63.99991989135742 565.500244140625 L 275.0004272460938 565.500244140625 C 283.5729675292969 565.500244140625 291.8888854980469 567.1790771484375 299.7170715332031 570.4901123046875 C 303.4796142578125 572.0814819335938 307.1086120605469 574.0512084960938 310.5032653808594 576.3446044921875 C 313.8658142089844 578.6162719726563 317.0278015136719 581.2251586914063 319.9014587402344 584.0987548828125 C 322.7750854492188 586.9723510742188 325.3840026855469 590.1343383789063 327.6557006835938 593.4968872070313 C 329.9491271972656 596.8915405273438 331.9188842773438 600.5205688476563 333.5103149414063 604.2830200195313 C 336.8214111328125 612.111328125 338.5003051757813 620.4273681640625 338.5003051757813 629.0001220703125 L 338.5003051757813 639.4999389648438 Z" stroke="none"/><path d="M 338.0003051757813 638.9999389648438 L 338.0003051757813 629.0001220703125 C 338.0003051757813 620.4946899414063 336.334716796875 612.244140625 333.0498046875 604.4778442382813 C 331.470947265625 600.7450561523438 329.5167236328125 597.1447143554688 327.2413940429688 593.7767944335938 C 324.9874877929688 590.4406127929688 322.3990478515625 587.3034057617188 319.5478820800781 584.4523315429688 C 316.69677734375 581.6011962890625 313.5595397949219 579.0127563476563 310.2233581542969 576.7589111328125 C 306.85546875 574.483642578125 303.255126953125 572.5294189453125 299.5223083496094 570.9506225585938 C 291.7560729980469 567.665771484375 283.5056762695313 566.000244140625 275.0004272460938 566.000244140625 L 63.99991989135742 566.000244140625 C 56.79081726074219 566.000244140625 49.7293586730957 567.2059326171875 43.00030517578125 569.5846557617188 L 43.00030517578125 638.9999389648438 L 338.0003051757813 638.9999389648438 M 339.0003051757813 639.9999389648438 L 42.00030517578125 639.9999389648438 L 42.00030517578125 568.8816528320313 C 48.86026763916016 566.3706665039063 56.27019119262695 565.000244140625 63.99991989135742 565.000244140625 L 275.0004272460938 565.000244140625 C 310.3460998535156 565.000244140625 339.0003051757813 593.6535034179688 339.0003051757813 629.0001220703125 L 339.0003051757813 639.9999389648438 Z" stroke="none" fill="#707070"/></g></g></svg>